<svg xmlns="http://www.w3.org/2000/svg" width="1314" height="1080" viewBox="0 0 1314 1080">
  <g id="Group_6" data-name="Group 6" transform="translate(-434)">
    <g id="Rectangle_1" data-name="Rectangle 1" transform="translate(434)" fill="#ffd500" stroke="#ffd500" stroke-width="1">
      <rect width="657" height="1080" stroke="none"/>
      <rect x="0.5" y="0.5" width="656" height="1079" fill="none"/>
    </g>
    <path id="png-to-svg-converter2" d="M631.208,50.05c-11.638,4.082-31.845,15.87-45.323,26.44-4.062,3.185-12.6,11.09-18.978,17.565L555.315,105.83l-7.172-2.349C534.478,99,515.614,96.639,493,96.566c-22.8-.074-33.235,1.32-49.495,6.609l-8.994,2.926-6.957-7.672c-21.747-23.985-57.224-46.221-75.972-47.616l-3.917-.292.181,7.489c.787,32.606,8.184,76.83,16.667,99.659,1.4,3.756,2.616,7.055,2.711,7.33s-1.213,3.2-2.908,6.5c-6.976,13.586-8.723,21.371-8.747,39-.022,14.963.158,16.518,2.767,24,3.87,11.1,9.13,18.71,20.649,29.887,5.435,5.274,10.106,9.951,10.378,10.392s-9.934.784-22.683.762c-14.878-.026-26.762.467-33.18,1.379-12.65,1.8-10.325,2.533,10.842,3.437,16.779.717,37.734,2.57,48.158,4.258,3.015.489,6.335,2.883,5.355,3.863-.289.289-5.212,1.226-10.94,2.082a226.872,226.872,0,0,0-43.358,10.858c-16.948,5.983-19.72,8.341-6.057,5.152,3.3-.77,14.55-2.816,25-4.548s20.125-3.336,21.5-3.566,6.335-.708,11.023-1.063c7.093-.537,8.743-.38,9.836.937,1.721,2.074.818,3.362-2.935,4.187-5.084,1.116-21.744,8.2-30.823,13.113-9.673,5.23-22.4,13.409-21.794,14.011.22.219,5.528-1.593,11.8-4.028,13.955-5.42,49.074-17.786,49.4-17.4.132.155,1.917,3.55,3.968,7.542,3.622,7.052,3.707,7.466,3.005,14.5-1.352,13.531-5.939,26.874-17.443,50.741-12.558,26.055-16.824,37.047-21.586,55.63-9.614,37.511-6.5,74.1,10.535,123.87,15.216,44.449,23.337,88.892,29.147,159.5,3.4,41.266,3.427,115.567.059,140.825-1.27,9.529-2.657,18.264-3.082,19.411-.628,1.7-2.522,2.438-10.19,3.977-22.711,4.558-39.6,19.877-43.864,39.787-1.06,4.947-1.494,22.425-.684,27.5.317,1.982,1.313,2.005,108.725,2.568,193.992,1.016,282.273.6,290.221-1.374,33.741-8.372,53.215-30.188,61.578-68.985,3.522-16.337,7.152-55.763,10.7-116.209,3.589-61.135-.642-117.993-12.195-163.892-17.7-70.3-50.647-122.849-103.933-165.749-4.418-3.557-15.893-11.679-25.5-18.049-41.45-27.485-49.017-42.292-46.017-90.058,4.55-72.456.416-117.964-13.6-149.679l-2.4-5.427,2.517-7.573c7.938-23.878,12.737-68.383,10.945-101.478-1.049-19.365-.725-18.871-10.208-15.544m-6.59,39.2a335.349,335.349,0,0,1-5.8,52.25c-1.115,5.5-2.492,12.587-3.061,15.75-1.172,6.512-1.66,6.88-3.961,2.985-.9-1.521-5.265-6.646-9.7-11.39l-8.069-8.625,2.86-6.36c4.085-9.085,11.246-29.936,10.9-31.737-.576-2.991-18.56,13.563-27.482,25.3-4.567,6.006-8.3,11.251-8.3,11.656s2.308,2.395,5.129,4.422c13.6,9.772,31.635,30.6,33.382,38.552.367,1.672-.217,5.5-1.449,9.486-8.866,28.7-31.873,50.41-78.87,74.416-5.67,2.9-10.135,5.439-9.922,5.651.83.831,31.781-10.077,41.293-14.552q38.461-18.1,54.092-49.051l3.8-7.5,1.271,8.881L622,218.262l-3.139,5.487c-6.3,11.017-18.439,26.058-31.468,39L574.052,276l-13.776.128c-7.577.07-14.7.229-15.837.354s-5.859.534-10.5.909c-9,.727-17.849,2.174-21.939,3.584-1.375.474-3.737,1.133-5.25,1.463s-2.75,1-2.75,1.493,1.237.746,2.75.567a259.338,259.338,0,0,1,39.9-1.006l17.773.74-4.459,3.924c-7.879,6.934-7.386,6.788-17.459,5.171-10.368-1.663-30.778-1.222-39.5.854l-5.5,1.31,4.5.318c6,.424,32.463,3.938,37.5,4.98l4,.827-4.9,3.16c-2.693,1.739-5.168,2.995-5.5,2.792a22.069,22.069,0,0,0-4.1-.948c-1.925-.318-7.325-1.261-12-2.1a90.943,90.943,0,0,0-12.5-1.471c-3.459.042-2.324.647,8.39,4.472,12.2,4.354,13.854,5.1,13.027,5.858-4.27,3.917-26.433,16.844-34.261,19.982-9.475,3.8-10.827,4.074-20.156,4.1-9.27.03-10.4-.187-15.421-2.968-6.7-3.709-16.887-13.121-15.541-14.363.529-.488,5.912-2.513,11.962-4.5l11-3.61,8,2.7c7,2.363,9.531,2.7,20.267,2.669,8.072-.02,12.671-.435,13.45-1.214.911-.911.734-1.188-.767-1.2-3.138-.034-17.721-4.568-22.529-7.005-6.619-3.354-11.773-7.764-13.864-11.862-2.955-5.792-.581-9.55,12.21-19.336,4.651-3.558,6.4-7.255,8.871-18.776,4.044-18.839,11.562-32.938,24.128-45.25,3.789-3.712,7.3-6.75,7.812-6.75s.922,1.37.922,3.045c0,3.249,3.772,7.955,6.377,7.955,4.131,0,12.089-8.642,14.043-15.25.663-2.244,9.58-2.594,9.58-.376,0,2.99-3.082,9.845-6.134,13.643-5.277,6.566-12.058,9.165-28.692,10.994C506.964,227.134,501,229.1,501,231.342c0,2.32,2.753,2.916,15.791,3.424,20.266.789,29.885-2.254,39.141-12.382,5.159-5.644,7.82-10.435,9.593-17.269,1.137-4.381,1.145-4.387,8.556-6.531,7.907-2.286,16.325-6.437,16.384-8.078.019-.546-2.44-1.294-5.465-1.66-37.022-4.486-54.172-3.8-67.131,2.687C497.754,201.6,486.654,220.019,482.03,251c-.616,4.125-1.3,8.4-1.531,9.5-.395,1.92-1.2,2-20.2,1.971-12.134-.018-19.78-.4-19.759-1,.051-1.4,1.618-11.607,2.145-13.971,1.513-6.792,1.468-23.41-.081-29.5-6.747-26.535-26.136-36.274-62.336-31.312-4.363.6-4.551.523-4-1.592,2.857-10.925,22.909-35.087,36.6-44.106l2.293-1.51-3.6-6.378a118.387,118.387,0,0,0-8.644-12.71c-5.273-6.626-17.585-18.055-18.483-17.157-.774.774,1.26,8.746,5.745,22.517L394.167,138l-6.334,6.909c-3.483,3.8-6.654,6.607-7.045,6.236-1.2-1.139-7.631-25.709-10.21-39.034-2.751-14.21-5.232-36.794-4.16-37.867,1.091-1.09,13.1,5.52,22.033,12.134,11.414,8.445,26.332,23.746,31.608,32.419,5.117,8.413,4.314,8.266,17.833,3.258,4.616-1.709,8.49-2.985,8.611-2.834s.756,9.05,1.414,19.775c1.09,17.771,4.1,45.042,5.791,52.5.656,2.892.707,2.839,1.412-1.5a110.9,110.9,0,0,0,.806-12.9c.076-8.681,2.7-46.387,3.9-56.1l.68-5.5,4.5-1.1a96.482,96.482,0,0,1,10.62-1.721l6.123-.626-1.413,4.1c-5.139,14.916-9.507,37.594-11.3,58.667-1.168,13.726-.105,19.444,1.876,10.089,3.453-16.307,14.65-49.532,22.333-66.264l3.145-6.85,7.556.643c4.156.353,9.459.9,11.784,1.209l4.229.568-3.017,4.139c-7.628,10.467-15.493,22.823-19.185,30.14-3.747,7.425-12.093,28.5-11.512,29.071.141.138,2.282-2.72,4.757-6.351C502.443,154.43,531.371,117,532.9,117c1.491,0,20.816,6.8,24,8.448,2.785,1.44,3.55,1.506,4.545.392.659-.737,5.572-6.38,10.918-12.54A226.26,226.26,0,0,1,604,83.765c5.616-4.189,18.375-11.719,19.9-11.743,1.168-.018,1.286,2.8.721,17.228M383.326,202c3.321,13.028,3.763,13.982,9.2,19.856,3.021,3.263,7.437,6.847,9.813,7.964,5.894,2.771,16.079,4.483,22.151,3.724,11.608-1.45,9.942-4.929-4.086-8.533-13.84-3.555-17.863-7.066-21.087-18.4-1.839-6.466-1.6-7.054,2.532-6.147,2.483.545,3.3,1.517,4.8,5.691,3.7,10.295,11.046,12.879,16.153,5.683,2.049-2.887,3.13-2.232,5.626,3.411,4.571,10.337,5.8,22.894,4.219,43.018l-.847,10.77,9.024,8.73C451.406,288,453.991,291.916,454,297.7c.005,4.9-2.605,7.4-12.372,11.873s-11.08,4.127-17.285-4.472c-2.936-4.071-5.339-7.783-5.339-8.25s2.673-.85,5.941-.85,6.192-.406,6.5-.9c.8-1.3-5.015-3.1-10.033-3.1-3.3,0-4.653-.513-5.85-2.223-2.7-3.854-2.028-4.441,4.193-3.664,8.434,1.053,13.812,1.043,12.7-.025-1.071-1.029-17.268-6.087-19.5-6.09-.8,0-2.773-2.589-4.393-5.75-1.957-3.82-6.618-9.438-13.895-16.748-6.023-6.05-12.672-13.273-14.775-16.051-7.651-10.105-11.386-25.9-8.925-37.757l1.2-5.791,5.136.3c4.948.288,5.169.427,6.028,3.8m243.708,60.543c.083,36.609-5.8,64.133-19.585,91.647-13.6,27.146-26.9,41.623-69.449,75.621-38.689,30.913-56.051,51.177-66.815,77.986-5.933,14.776-7.585,25.01-7.539,46.7.048,22.335,1.228,31.24,8.37,63.167,2.78,12.428,4.849,22.8,4.6,23.051-.782.782-17.3-33.719-21.172-44.218-8.163-22.147-9.785-30.786-9.854-52.5-.069-21.436,1.26-28.779,8.47-46.822,11.5-28.777,29.493-49.505,74.435-85.748,31.636-25.513,45.263-39.363,58.775-59.738,14.287-21.544,27.039-58.619,31.663-92.057,1.009-7.291,5.972-20.131,7.277-18.826.427.427.8,10.208.825,21.734m-22.618,9.207c-.218.962-1.267,6.025-2.332,11.25-3.574,17.545-12.115,40.578-19.839,53.5-13.209,22.1-28.6,37.886-68.353,70.114-35.468,28.756-50.723,46.041-64.906,73.546-11.141,21.605-15.426,39.853-15.461,65.84-.035,25.931,4.324,44.106,16.944,70.657,3.042,6.4,5.531,11.859,5.531,12.133,0,1.249-20.808-27.761-28.231-39.359-28.929-45.2-41.734-90.4-36.384-128.431,3.367-23.933,8.842-40.882,22.126-68.5,9.056-18.827,13.126-29.563,16.959-44.731l3.217-12.731,2.407,2.592a61.815,61.815,0,0,0,8.138,6.506l5.732,3.914-1.61,4.225c-2.28,5.984-10.324,22.554-16.373,33.725-14.8,27.333-23.932,53.867-27.04,78.559-1.285,10.212-.784,30.2.913,36.441.523,1.925,1.229,4.737,1.568,6.25,1.31,5.846,2.085,2.22,2.245-10.5.47-37.291,13.918-76.736,41.337-121.248,4.743-7.7,9.627-15.8,10.854-18l2.229-4,8.707-.045c15.1-.078,31.006-6.708,55.455-23.122,13.023-8.744,14.167-9.308,17.1-8.435,4.1,1.219,22.921,9.152,28.494,12.011,10.016,5.14,2.829-1.962-12.06-11.916-5.342-3.571-9.585-6.926-9.429-7.455s3.4-3.13,7.213-5.779l6.929-4.816,10,3.017c15.427,4.654,16.366,3.821,3.582-3.177l-7.85-4.3,9.284-7.867c5.107-4.327,12.355-10.961,16.108-14.743s6.9-6.875,7.006-6.875a4.334,4.334,0,0,1-.214,1.75M425,303c0,.55,1.462.993,3.25.985,2.466-.012,2.888-.249,1.75-.985-1.965-1.27-5-1.27-5,0m203.067,59.918c1.37,10.963,3.733,17.666,12.013,34.082,5.53,10.963,10.92,24.206,10.92,26.83,0,.275-2.164-3.062-4.808-7.415s-8.969-13.878-14.055-21.166S621.746,379.5,620.35,376.454l-2.538-5.545,3.04-7.7c1.672-4.238,3.627-9.73,4.344-12.2l1.3-4.5.258,4c.142,2.2.731,7.788,1.309,12.418m-93.085-2.581c-1.915,1.286-9.557,5.86-16.982,10.165s-17.775,10.952-23,14.771c-12.273,8.972-36.592,33.577-45.216,45.749-25.961,36.641-35.6,79.959-26.142,117.478.832,3.3,1.816,6.315,2.185,6.7s.692-7.49.715-17.5c.093-40.9,10.365-72.341,33.624-102.927,13.656-17.958,45.524-47.844,78.883-73.976,2.888-2.262,3.122-2.711,1.433-2.75-1.11-.026-3.585,1.005-5.5,2.29m81.676,39.413c11.481,15.026,15.976,21.722,21.649,32.25,14.22,26.39,17.42,52.116,9.452,76-1.914,5.738-2.759,5.723-2.765-.05-.03-28.237-14.818-63.012-39.875-93.772-4.19-5.144-8.149-10.1-8.8-11.015-.988-1.395-.262-2.749,4.5-8.391,3.124-3.7,5.945-6.738,6.269-6.75s4.63,5.266,9.568,11.728M600.63,430.5c22.777,28.128,34.545,60.562,33.017,91-.686,13.664-2.853,20.874-10.218,34-18.051,32.168-24.2,44.934-33.729,70.051-9.373,24.7-19.011,60.8-34.157,127.949-16.618,73.673-23.3,100.465-32.688,131-9.443,30.724-13.274,39.745-19.957,46.995-7.081,7.681-8.331,7.98-33.9,8.088-12.375.053-23-.081-23.611-.3-1.5-.531-.061-8.049,2.5-13.074a32.8,32.8,0,0,1,6.125-7.608c2.288-2.068,4-3.917,3.811-4.109-.948-.948-11.311,3.59-13.971,6.12A34.781,34.781,0,0,0,435.03,935.8l-1.134,4.3-5.2-.3-5.2-.3.179-4.142c.409-9.5,9-20.433,20.17-25.677,5.963-2.8,7.634-3.125,16.151-3.152a105.434,105.434,0,0,1,13.9.757c3.843.686,4.245.6,3.163-.708-.682-.822-3.479-2.506-6.215-3.743-3.473-1.569-4.836-2.714-4.514-3.792,10.138-33.906,19.534-79.6,24.583-119.543,5.6-44.346,6.473-56.061,6.481-87.5.01-33.987-.078-34.688-9.458-75.556-7.668-33.407-9.246-44.073-9.311-62.944-.05-14.379.284-18.368,2.166-25.875,7.5-29.915,25.107-52.126,69.7-87.931,12.1-9.715,24.475-19.9,27.5-22.639l5.5-4.977,6.54,6.711c3.6,3.691,8.363,8.961,10.59,11.711M684,434.352c32.376,21.488,57.388,46.34,78.149,77.648,9.2,13.869,24.411,44.915,30.873,63,10.834,30.319,17.792,65.056,21.032,105,2.5,30.822.979,95.073-3.042,128.5-.529,4.4-1.877,18.575-3,31.5-2.62,30.272-3.6,37.322-6.633,47.85-9.377,32.524-27.2,47.027-60.883,49.547l-8,.6,5-1.846c33.658-12.43,55.918-40.987,61.965-79.493,2.527-16.1,2.8-29.154,1.191-57.156-.853-14.85-1.8-44.276-2.107-65.392-.6-41.293-2.158-64.254-6.1-89.723-8.322-53.776-27.651-100.336-58.9-141.885-13.968-18.57-44.785-48.437-60.819-58.942-2.075-1.36-2.686-2.908-3.617-9.173-.617-4.144-1.622-8.471-2.234-9.615-1.342-2.507.246-1.619,17.123,9.582m-93,23.063c0,.449,1.794,6.428,3.987,13.288,6.147,19.227,7.369,26.581,7.446,44.8.1,23.585-.432,25.643-21.412,83C565.84,640,559.268,663.485,548,716.5c-22.822,107.345-36.509,161.285-50.537,199.162-2.547,6.876-4.373,12.758-4.058,13.073,1.113,1.113,7.742-7.072,11.023-13.609C516.36,891.343,527.623,850,552,740.5c16.988-76.316,24.564-102.073,45-153,13.249-33.016,16.433-43.995,17.6-60.7,1.478-21.075-4.439-42.214-17.157-61.3-5.079-7.619-6.448-9.336-6.448-8.085m98.5,17.179c29.994,25.026,58.353,66.142,72.917,105.717C777.141,620.319,786.024,676,785.978,728l-.013,14.5-4.012-10c-2.207-5.5-6.939-15.749-10.516-22.776l-6.5-12.776-1.487-16.224c-6.867-74.919-34.038-136.39-82.095-185.734l-11.21-11.51.575-11.68.575-11.68,3.6,2.648c1.982,1.457,8.554,6.778,14.6,11.826m-.371,47.991c29.89,35.495,52.01,87.906,59.155,140.165.771,5.638,1.3,10.25,1.171,10.25s-2.854-3.263-6.062-7.25S733.46,654.225,728.447,649c-9.049-9.434-9.125-9.556-10.925-17.5-7.778-34.331-30.076-77.183-54.377-104.5-3.682-4.139-3.709-4.387-1.207-11.212,1.066-2.909,2.7-7.979,3.637-11.267l1.7-5.979,7.49,7.939c4.119,4.367,10.583,11.614,14.364,16.1M665.419,550.5c14.919,18.907,28.068,44.244,35.965,69.3,3.434,10.9,3.42,11.9-.134,9.393-16.2-11.434-47.1-16.948-66.25-11.82-9.159,2.454-21.59,8.794-27.666,14.112l-5.166,4.521,2.754-7.754c6.012-16.923,11.91-28.831,28.607-57.754,5.08-8.8,11.427-20.417,14.1-25.815l4.867-9.816,3.3,3.816c1.817,2.1,6.144,7.415,9.616,11.815M444.832,638c12.87,16.292,24.673,32.657,30.715,42.585l3.6,5.915-.623,15c-2.952,71.138-9.972,126.3-23.115,181.626l-2.524,10.627-7.141.7c-19.195,1.891-33.757,15.762-38.445,36.618l-1.748,7.778-6.9.324c-5.187.243-7.037-.021-7.434-1.061-.787-2.059,1.475-15.276,3.7-21.593,2.335-6.643,1.675-6.909-3.065-1.238-5.139,6.147-8.061,12.4-8.746,18.715-.546,5.043-.818,5.526-3.274,5.809-3.184.368-3.849-2.288-2.527-10.1,2.764-16.343,14.687-27.012,33.769-30.221,16.256-2.734,17.184-3.53,19.952-17.118,8.619-42.321,9.174-116.006,1.467-194.872-3.223-32.986-8.434-67.2-12.181-79.974-.318-1.086,2.316,1.839,5.853,6.5S438.1,629.475,444.832,638M674.5,633.537c48.224,13.222,93.246,77.6,108.715,155.463,3.029,15.243,3.332,51.6.539,64.561-3.855,17.878-9.726,31.236-19.347,44.019-19.122,25.408-45.19,34.307-109.407,37.351-36.523,1.731-82,2.343-82,1.1,0-2.242,3.988-8.847,6.738-11.159,1.553-1.307,5.619-4.176,9.035-6.376,9.512-6.127,8.184-6.645-5.969-2.327-8.642,2.637-13.82,7.083-17.9,15.369L561.725,938h-8.981l.65-4.25c2.056-13.449,12.749-25.629,26.621-30.322,13.287-4.495,67.2-5.63,111.485-2.347,24.808,1.84,35.5,2.235,35.5,1.312,0-1.177-1.6-2.162-19-11.713-43.594-23.927-72.285-48.622-92.574-79.68-23.374-35.782-33.4-74.9-28-109.224,6.1-38.738,24.709-62.615,54.073-69.369,7.544-1.735,24.69-1.148,33,1.13m-25.3,24.975c-33.111,5.023-53.72,39.132-47.911,79.295,8.184,56.585,62.731,123.538,128.212,157.374,16.336,8.441,15.847,8.327,19.976,4.7,7.632-6.7,15.363-22.24,19.815-39.829,3.19-12.6,3.171-48.259-.034-65.053C757.83,735.1,724.406,682.37,686.5,664.44c-13.16-6.225-23.993-7.947-37.3-5.928M671.068,672.6c14.086,4.142,31.811,16.508,44.3,30.9,35.354,40.756,53.291,111.493,40.574,160-2.322,8.857-9.235,23.054-11.927,24.494-1.29.691-4.537-.455-12.791-4.516-53.291-26.217-103.936-85.415-116.357-136.01-2.645-10.775-3.157-30.745-1.011-39.467,4.427-17.993,17.523-32.292,32.893-35.914,6.207-1.463,18.487-1.205,24.322.512m-95.58,95.9c8.568,28.716,25.8,57.29,49.207,81.6,9.337,9.7,28.482,26.643,36.318,32.146,2.4,1.685,1.846,1.735-15.649,1.42l-18.135-.327-10.365-9.025c-14.611-12.723-27.17-27.272-39.549-45.815-5.468-8.191-15.308-25.393-15.347-26.829-.017-.644,2.1-11.465,4.708-24.047,3.3-15.923,4.951-22.154,5.433-20.5.382,1.307,1.9,6.426,3.379,11.376m-3.1,84.98c6.136,8.091,14.119,17.548,21.333,25.27l3.971,4.25-14.1.016c-16.961.02-34.185,1.393-41.346,3.3-2.888.767-5.25,1.184-5.25.926s2.443-8.179,5.429-17.6,6.87-22.085,8.631-28.135,3.39-11.331,3.621-11.736,2.948,2.97,6.038,7.5,8.342,11.827,11.67,16.216M557,899.756c-8.6,5.681-17.831,20.549-19.707,31.737l-.833,4.967-4.881.819c-6.651,1.115-7.22.322-5.7-7.943,3.153-17.114,12.626-27.7,26.786-29.924a17.544,17.544,0,0,0,4.249-1.007,2.423,2.423,0,0,1,1.5-.353c.6.029-.042.8-1.417,1.7" transform="translate(215.244 38.558)" fill-rule="evenodd"/>
    <g id="Rectangle_2" data-name="Rectangle 2" transform="translate(1091)" fill="#fff" stroke="#ffd500" stroke-width="10">
      <rect width="657" height="1080" stroke="none"/>
      <rect x="5" y="5" width="647" height="1070" fill="none"/>
    </g>
    <g id="Group_2" data-name="Group 2" transform="translate(-176)">
      <path id="Path_6" data-name="Path 6" d="M75.636-78.606c-25.938,0-40.392.792-40.392-5.94,0-4.95,10.692-6.534,35.64-6.534,26.334,0,36.432,2.376,38.016,8.712h21.78v-.792c0-7.722,3.366-31.68,14.652-48.708l-24.948-11.484c-2.97,3.96-6.138,11.286-8.118,18.612-5.94-14.454-19.206-17.82-47.322-17.82-36.63,0-53.856,18.81-53.856,46.332,0,35.244,34.848,31.482,60.984,31.482,35.838,0,40.986.4,40.986,5.148,0,4.95-8.712,7.524-35.64,7.524-32.274,0-40.392-2.376-41.976-8.712H13.662v.792C13.662-49.7,10.3-25.74-.99-8.712L23.958,2.772C27.522-1.98,31.086-10.89,32.868-19.6,41.382-6.138,57.816,1.386,81.378,1.386c38.61,0,55.836-18.81,55.836-48.312C137.214-81.774,109.692-78.606,75.636-78.606Zm223.542-9.5v-52.47h-67.32v48.51c16.83,0,21.978,5.94,23.562,13.86h-59c1.386-7.92,6.138-13.86,23.166-13.86v-48.51h-67.32v52.47c22.374,1.98,23.958,7.326,23.958,16.434V-68.9c0,9.108-1.584,14.454-23.958,16.434V0h67.32V-48.51c-18.414,0-22.572-6.93-23.364-15.84h59.4c-.99,8.91-5.544,15.84-23.76,15.84V0h67.32V-52.47C277.794-54.45,275.616-59.8,275.616-68.9v-2.772C275.616-80.784,277.794-86.13,299.178-88.11ZM371.844,1.98c42.57,0,63.954-24.75,63.954-72.468,0-47.322-21.384-72.072-63.954-72.072s-63.756,24.75-63.756,72.072C308.088-22.77,329.274,1.98,371.844,1.98Zm0-55.44c-32.868,0-41.976-5.148-41.976-17.028,0-11.484,9.108-16.632,41.976-16.632s42.174,5.148,42.174,16.632C414.018-58.608,404.712-53.46,371.844-53.46Zm163.35-87.12H445.5v52.47c22.374,1.98,23.958,7.326,23.958,16.434V-68.9c0,9.108-1.584,14.454-23.958,16.434V0h67.32V-48.51c-17.028,0-21.78-5.94-23.166-13.86h50.49c23.166,0,37.224-10.89,37.224-38.808C577.368-131.67,559.944-140.58,535.194-140.58Zm.99,64.35H489.258c0-8.91,1.188-15.84,19.6-15.84h28.314c11.286,0,16.434.4,16.434,7.92C553.608-77.022,548.856-76.23,536.184-76.23Z" transform="translate(1307 347)"/>
      <path id="Path_5" data-name="Path 5" d="M60.984,3.96c12.474,0,25.938-3.168,34.452-8.118V-49.5C90.882-42.372,82.368-38.016,73.26-38.016c-12.474,0-21.186-8.712-23.76-22.968L95.436-54.45v-29.7L49.3-79.4c2.178-13.86,10.3-21.186,23.76-21.186,9.9,0,17.424,3.96,22.374,11.484v-45.342c-8.514-4.95-21.978-8.118-34.452-8.118-20.394,0-42.966,9.5-56.43,23.76v99C18.018-5.544,40.59,3.96,60.984,3.96ZM103.95,0h77.418V-47.52L150.282-32.67l9.9-105.93H103.95Z" transform="translate(1504 562)"/>
      <path id="Path_4" data-name="Path 4" d="M147.114-57.42v-19.8h-59.4v15.84c17.226,0,22.176.4,22.176,4.554S99-51.48,71.676-51.48c-34.848,0-43.956-7.128-43.956-19.008C27.72-81.972,36.828-89.1,69.7-89.1c28.314,0,38.412,3.564,40,7.92h21.78v-.792c0-8.118,1.386-32.076,12.672-49.1L119.2-142.56c-3.564,4.752-6.534,13.86-7.722,22.77-6.732-15.048-19.6-22.77-43.758-22.77-42.57,0-61.776,24.75-61.776,72.072C5.94-22.77,25.146,1.782,63.756,1.98c28.116.2,41.58-9.108,48.114-23.364C113.256-9.306,116.82-.2,119.2,2.574L144.738-9.7C138.6-19.008,131.67-43.56,131.67-50.688v-.792C131.67-56.034,135.432-57.816,147.114-57.42Zm131.274-5.94L268.29-79.6c-2.97-4.752-1.584-8.91,7.128-8.91v-51.876H183.546v51.876c8.712,0,10.1,4.158,7.128,8.91l-10.1,16.236c-4.158,6.732-10.3,10.494-27.522,11.484V0h70.29V-47.916c-13.464-.99-22.374-6.534-19.206-14.454h50.49c2.97,7.722-5.742,13.464-19.008,14.454V0h70.29V-51.876C288.684-52.866,282.546-56.628,278.388-63.36ZM246.312-76.23h-33.66l17.028-26.928Zm192.654-64.35H294.03V-99c10.494,3.96,10.1,5.346,10.1,15.444v7.128h19.8v-6.138c0-8.514,7.722-9.5,14.85-9.5h1.188c14.652,0,16.83.99,16.83,12.474V-68.9c0,9.108-2.772,14.454-23.958,16.434V0h67.32V-52.47C378.774-54.45,376.6-59.8,376.6-68.9V-79.6c0-11.484,1.584-12.474,16.434-12.474h1.188c7.128,0,14.85.99,14.85,9.5v6.138h19.8v-7.128c0-10.1-.4-11.484,10.1-15.444Zm69.7,142.56c42.57,0,63.954-24.75,63.954-72.468,0-47.322-21.384-72.072-63.954-72.072s-63.756,24.75-63.756,72.072C444.906-22.77,466.092,1.98,508.662,1.98Zm0-55.44c-32.868,0-41.976-5.148-41.976-17.028,0-11.484,9.108-16.632,41.976-16.632s42.174,5.148,42.174,16.632C550.836-58.608,541.53-53.46,508.662-53.46Z" transform="translate(1306 804)"/>
    </g>
  </g>
</svg>
